<svg xmlns="http://www.w3.org/2000/svg" viewBox="0 0 32 32"><defs><linearGradient id="blue" x1="0" y1="0" x2="1" y2="1"><stop stop-color="#2196ee"/><stop offset="1" stop-color="#0865cf"/></linearGradient></defs><rect x="1" y="1" width="30" height="30" rx="9" fill="url(#blue)"/><g transform="translate(4 4)"><path d="M8 3.8H7A3.2 3.2 0 0 0 3.8 7V17A3.2 3.2 0 0 0 7 20.2H8M16 3.8H17A3.2 3.2 0 0 1 20.2 7V17A3.2 3.2 0 0 1 17 20.2H16" fill="none" stroke="#fff" stroke-width="3" stroke-linecap="round" stroke-linejoin="round"/><path d="M18.45 2.7Q19 1.7 19.55 2.7C20.1 3.9 20.5 4.3 21.7 4.85Q22.7 5.4 21.7 5.95C20.5 6.5 20.1 6.9 19.55 8.1Q19 9.1 18.45 8.1C17.9 6.9 17.5 6.5 16.3 5.95Q15.3 5.4 16.3 4.85C17.5 4.3 17.9 3.9 18.45 2.7Z" transform="translate(-7 6.6)" fill="#c5f3ff" stroke="#c5f3ff" stroke-width="0.4" stroke-linejoin="round"/></g></svg>